<?xml version="1.0" standalone="no"?>
<!DOCTYPE svg PUBLIC "-//W3C//DTD SVG 20010904//EN"
 "http://www.w3.org/TR/2001/REC-SVG-20010904/DTD/svg10.dtd">
<svg version="1.0" xmlns="http://www.w3.org/2000/svg"
 width="700.000000pt" height="700.000000pt" viewBox="0 0 700.000000 700.000000"
 preserveAspectRatio="xMidYMid meet">
<metadata>
Created by potrace 1.11, written by Peter Selinger 2001-2013
</metadata>
<g transform="translate(0.000000,700.000000) scale(0.100000,-0.100000)"
fill="#000000" stroke="none">
<path d="M910 6984 c-55 -24 -97 -61 -127 -112 l-28 -47 -3 -3300 c-2 -3675
-8 -3365 67 -3443 22 -23 55 -49 73 -59 32 -17 146 -18 2608 -18 l2575 0 42
23 c49 28 100 87 119 140 11 30 13 491 14 2488 0 2243 -1 2455 -16 2500 -15
45 -93 125 -883 917 -494 495 -885 880 -911 895 l-45 27 -1725 2 c-1514 2
-1729 0 -1760 -13z m2756 -559 c3 -7 6 -404 7 -881 l2 -869 26 -56 c34 -72 95
-134 167 -167 l57 -27 865 -2 c476 0 873 -2 882 -2 15 -1 16 -133 16 -1930 l0
-1929 -2188 0 -2187 1 0 2937 0 2938 1174 0 c956 0 1175 -2 1179 -13z m1274
-740 c401 -401 730 -730 730 -730 0 -1 -330 -1 -732 -1 l-733 1 -1 733 c0 403
0 731 2 730 2 -2 332 -331 734 -733z"/>
<path d="M2451 3785 c-57 -30 -54 40 -54 -1144 0 -1006 2 -1090 17 -1114 25
-37 56 -44 196 -42 132 1 160 9 178 50 6 14 10 283 10 709 0 378 2 689 4 691
2 2 34 -64 71 -148 53 -122 336 -758 391 -882 85 -189 73 -179 229 -181 115
-1 147 4 172 30 6 6 111 238 234 516 123 278 237 533 253 567 15 34 28 65 28
70 0 5 6 17 13 26 10 14 12 -119 11 -675 0 -560 2 -698 13 -720 22 -46 55 -54
194 -53 140 1 169 11 186 62 11 34 10 2158 -1 2190 -4 12 -20 31 -35 42 -25
18 -43 20 -194 18 -202 -2 -188 7 -272 -187 -31 -74 -65 -153 -75 -175 -23
-51 -104 -237 -165 -380 -44 -102 -76 -174 -110 -250 -8 -16 -63 -144 -123
-283 -60 -139 -113 -252 -118 -251 -5 1 -33 57 -62 123 -58 133 -67 153 -106
239 -14 32 -26 60 -26 62 0 2 -11 28 -25 57 -44 96 -425 970 -425 977 0 8 -49
61 -58 62 -41 8 -334 3 -351 -6z"/>
</g>
</svg>
